<svg width="150" height="22" viewBox="0 0 150 22" fill="none" xmlns="http://www.w3.org/2000/svg">
<path d="M122.609 0.190002L113.887 13.3589V21.9982H110.461V13.3589L101.739 0.190002H105.735L111.606 8.83519L112.147 9.8058L112.704 8.84684L118.613 0.190002H122.609V0.190002Z" fill="#00163B"/>
<path d="M148.579 12.1926C147.19 11.0214 145.527 10.4837 142.511 9.50962L141.737 9.26187C141.589 9.21401 141.416 9.16334 141.226 9.10703C139.713 8.66222 137.206 7.92179 137.293 5.8976C137.366 4.25629 138.561 3.31879 140.841 3.10483C142.52 2.94999 144.111 3.31598 145.103 4.08737C145.658 4.54033 145.998 5.17871 146.05 5.86382H149.783C149.779 4.52274 149.178 3.24315 148.122 2.33063C146.504 0.886384 143.921 0.109364 141.026 0.196638C137.78 0.295173 136.21 1.26645 135.563 1.83795C134.288 2.91705 133.579 4.45752 133.618 6.06089C133.618 10.0023 137.333 11.1903 139.553 11.8942C139.789 11.9702 140.01 12.0377 140.203 12.1053L141.498 12.5445C144.45 13.527 146.401 14.1746 146.401 16.0017C146.395 16.8952 145.907 17.7262 145.103 18.2145C144.408 18.6875 143.261 18.969 142.036 18.969C139.919 18.969 137.106 18.6227 136.749 15.6441H133.044C133.041 17.4705 133.988 19.1852 135.584 20.2471C137.169 21.3507 139.417 21.9729 141.915 21.9982H142.036C144.314 21.9982 146.598 21.3648 147.856 20.3879C149.223 19.3265 149.943 17.8232 149.997 15.92C150.04 14.4167 149.562 13.1582 148.579 12.1926Z" fill="#00163B"/>
<path fill-rule="evenodd" clip-rule="evenodd" d="M17.1814 6.89127C17.1814 9.66792 15.8144 11.8036 13.4131 12.8059L18.2609 21.9982H14.5461L10.0648 13.4002H3.25251V21.9895H0V0.190002H10.1831C14.4334 0.190002 17.1814 2.81224 17.1814 6.89127ZM3.2525 10.3118H10.1831C12.5112 10.3118 13.9007 9.03276 13.9007 6.8767C13.9007 4.69151 12.5112 3.38039 10.1831 3.38039H3.2525V10.3118Z" fill="#00163B"/>
<path fill-rule="evenodd" clip-rule="evenodd" d="M24.7827 11.066C24.7827 4.76433 29.4508 0.190002 35.8841 0.190002C42.3 0.190002 46.9566 4.73057 46.9566 11.066C46.9566 17.4014 42.3174 21.9982 35.8841 21.9982C29.4508 21.9982 24.7827 17.3677 24.7827 11.066ZM28.2519 11.066C28.2519 15.6966 31.3901 18.929 35.8841 18.929C40.3027 18.929 43.4961 15.5897 43.4961 11.066C43.4961 6.5423 40.3027 3.25925 35.8841 3.25925C31.3901 3.25925 28.2519 6.4354 28.2519 11.066Z" fill="#00163B"/>
<path d="M52.174 3.37001H59.6754V21.9982H62.9334V3.37001H70.4348V0.190002H52.174V3.37001V3.37001Z" fill="#00163B"/>
<path d="M90.6239 9.48809H80.2486V0.190002H76.9565V21.9982H80.2486V12.7002H90.6239V21.9982H93.9131V0.190002H90.6239V9.48809V9.48809Z" fill="#00163B"/>
<path d="M130.435 0.190002H126.522L126.892 5.32135H130.068L130.435 0.190002V0.190002Z" fill="#00163B"/>
</svg>
